<svg width="104" height="25" fill="none" xmlns="http://www.w3.org/2000/svg"><path d="M0 4.98074V24.1068h2.74564V10.2572h.17743l5.6407 13.8216h2.27873l5.6407-13.8122h.1774v13.8402h2.7456V4.98074h-3.5021L9.81518 19.8483h-.22414L3.50209 4.98074H0zM30.0479 24.3963c3.1285 0 5.3418-1.5409 5.9769-3.8756l-2.6429-.4763c-.5043 1.3541-1.7184 2.0452-3.306 2.0452-2.3907 0-3.997-1.5503-4.0717-4.3146h10.198v-.9899c0-5.1831-3.1005-7.20962-6.3504-7.20962-3.9971 0-6.6306 3.04452-6.6306 7.45242 0 4.4547 2.5962 7.3684 6.8267 7.3684zm-4.0344-8.7132c.1121-2.0359 1.5876-3.8009 3.857-3.8009 2.1666 0 3.5861 1.6063 3.5954 3.8009h-7.4524zM50.0495 13.2643c-.579-2.232-2.3254-3.68882-5.4259-3.68882-3.2406 0-5.538 1.70902-5.538 4.24922 0 2.0359 1.2327 3.39 3.9223 3.9877l2.4282.5323c1.3821.3082 2.0265.9246 2.0265 1.8211 0 1.1113-1.186 1.9798-3.0165 1.9798-1.6716 0-2.7456-.7191-3.0818-2.1292l-2.6989.4109c.4669 2.5402 2.5775 3.969 5.7994 3.969 3.4647 0 5.8648-1.8398 5.8648-4.436 0-2.0265-1.2887-3.2779-3.9223-3.885l-2.2787-.5229c-1.5783-.3736-2.26-.9059-2.2507-1.8771-.0093-1.102 1.1861-1.8865 2.7737-1.8865 1.737 0 2.5402.9619 2.867 1.9238l2.5309-.4483zM60.0958 9.76226H57.154V6.32554h-2.7923v3.43672h-2.1012v2.24134h2.1012v8.4704c-.0093 2.6055 1.9799 3.8663 4.1838 3.8196.8872-.0094 1.4849-.1775 1.8118-.2989l-.5043-2.3067c-.1868.0374-.5323.1214-.9806.1214-.9059 0-1.7184-.2988-1.7184-1.9144v-7.8914h2.9418V9.76226zM69.0728 24.3963c4.0437 0 6.6866-2.9604 6.6866-7.3964 0-4.464-2.6429-7.42442-6.6866-7.42442s-6.6866 2.96042-6.6866 7.42442c0 4.436 2.6429 7.3964 6.6866 7.3964zm.0093-2.3441c-2.6429 0-3.8756-2.3067-3.8756-5.0616 0-2.7457 1.2327-5.0804 3.8756-5.0804 2.6243 0 3.857 2.3347 3.857 5.0804 0 2.7549-1.2327 5.0616-3.857 5.0616zM78.2963 6.57458h.772V4.08421h1.3946c.056 0 .1089 0 .1619-.00311l1.3448 2.49348h.8965l-1.4413-2.63357c.8125-.27705 1.1923-.94011 1.1923-1.78684 0-1.12689-.6725-1.95494-2.1667-1.95494h-2.1541v6.37535zm.772-3.18767V.884082h1.3572c1.0335 0 1.432.504298 1.432 1.270088 0 .76579-.3985 1.23274-1.4195 1.23274h-1.3697zM86.8172 4.61964c0 .89653-.6848 1.30744-1.2327 1.30744-.6102 0-1.046-.44826-1.046-1.14557V1.79307h-.7346v3.03825c0 1.22028.6475 1.80552 1.544 1.80552.7222 0 1.1954-.38601 1.4195-.87163h.0498v.80937h.7347V1.79307h-.7347v2.82657zM92.2844 2.86393c-.2304-.67863-.7472-1.13312-1.6935-1.13312-1.0086 0-1.7557.57278-1.7557 1.38215 0 .65995.3922 1.10199 1.2701 1.30745l.7969.18678c.4825.11206.7098.34242.7098.6724 0 .41091-.4359.74711-1.1207.74711-.6008 0-.9775-.25838-1.1082-.77202l-.6973.17433c.1712.81248.8405 1.24519 1.8179 1.24519 1.1114 0 1.8678-.60703 1.8678-1.43197 0-.66617-.4171-1.08642-1.2701-1.29499l-.7097-.17433c-.5666-.14008-.8218-.32997-.8218-.6973 0-.41091.4358-.70976 1.021-.70976.6413 0 .9059.35488 1.0335.68486l.66-.18678zM96.8643 2.86393c-.2304-.67863-.7471-1.13312-1.6934-1.13312-1.0086 0-1.7557.57278-1.7557 1.38215 0 .65995.3922 1.10199 1.27 1.30745l.797.18678c.4825.11206.7097.34242.7097.6724 0 .41091-.4358.74711-1.1207.74711-.6008 0-.9774-.25838-1.1082-.77202l-.6973.17433c.1712.81248.8405 1.24519 1.818 1.24519 1.1113 0 1.8678-.60703 1.8678-1.43197 0-.66617-.4172-1.08642-1.2701-1.29499l-.7098-.17433c-.5665-.14008-.8218-.32997-.8218-.6973 0-.41091.4358-.70976 1.0211-.70976.6412 0 .9058.35488 1.0335.68486l.6599-.18678zM98.0574 6.57458h.7346V1.79307h-.7346v4.78151zm.3735-5.578431c.2864 0 .523-.224134.523-.498075C98.9539.224134 98.7173 0 98.4309 0s-.523.224134-.523.498074c0 .273941.2366.498075.523.498075zM101.545 6.68665c.834 0 1.27-.44827 1.419-.75957h.038v.6475h.734V3.42426c0-1.51913-1.158-1.69345-1.768-1.69345-.722 0-1.544.24904-1.918 1.12067l.698.24903c.162-.34865.545-.7222 1.245-.7222.675 0 1.009.35799 1.009.97124v.0249c0 .35488-.362.32375-1.233.43582-.887.11518-1.8555.31129-1.8555 1.40706 0 .93389.7225 1.46932 1.6315 1.46932zm.112-.65995c-.586 0-1.009-.26149-1.009-.77202 0-.56033.511-.73466 1.083-.80937.312-.03735 1.146-.12451 1.271-.27394v.6724c0 .59769-.474 1.18293-1.345 1.18293z" fill="#fff"/></svg>